<mxfile modified="2019-12-02T12:59:57.139Z" host="www.draw.io" agent="Mozilla/5.0 (Windows NT 10.0; Win64; x64) AppleWebKit/537.36 (KHTML, like Gecko) Chrome/75.0.3770.80 Safari/537.36" etag="lJczXe6-_TqWm6XRUytg" version="12.3.2" type="github" pages="1">
  <diagram id="Ht1M8jgEwFfnCIfOTk4-" name="Page-1">
    <mxGraphModel dx="3754" dy="3001" grid="1" gridSize="10" guides="1" tooltips="1" connect="1" arrows="1" fold="1" page="1" pageScale="1" pageWidth="1169" pageHeight="827" math="0" shadow="0">
      <root>
        <mxCell id="0"/>
        <mxCell id="1" parent="0"/>
        <mxCell id="xc-v-wYqTJA-IZ1ZFv6Z-17" value="Private subnet" style="points=[[0,0],[0.25,0],[0.5,0],[0.75,0],[1,0],[1,0.25],[1,0.5],[1,0.75],[1,1],[0.75,1],[0.5,1],[0.25,1],[0,1],[0,0.75],[0,0.5],[0,0.25]];outlineConnect=0;gradientColor=none;html=1;whiteSpace=wrap;fontSize=12;fontStyle=0;shape=mxgraph.aws4.group;grIcon=mxgraph.aws4.group_security_group;grStroke=0;strokeColor=#147EBA;fillColor=#E6F2F8;verticalAlign=top;align=left;spacingLeft=30;fontColor=#147EBA;dashed=0;" vertex="1" parent="1">
          <mxGeometry x="700" y="-272" width="300" height="220" as="geometry"/>
        </mxCell>
        <mxCell id="xc-v-wYqTJA-IZ1ZFv6Z-11" value="AWS Cloud" style="points=[[0,0],[0.25,0],[0.5,0],[0.75,0],[1,0],[1,0.25],[1,0.5],[1,0.75],[1,1],[0.75,1],[0.5,1],[0.25,1],[0,1],[0,0.75],[0,0.5],[0,0.25]];outlineConnect=0;gradientColor=none;html=1;whiteSpace=wrap;fontSize=12;fontStyle=0;shape=mxgraph.aws4.group;grIcon=mxgraph.aws4.group_aws_cloud_alt;strokeColor=#232F3E;fillColor=none;verticalAlign=top;align=left;spacingLeft=100;fontColor=#232F3E;dashed=0;spacingTop=1;spacing=1;spacingBottom=100;spacingRight=100;" vertex="1" parent="1">
          <mxGeometry x="5" y="-820" width="1340" height="820" as="geometry"/>
        </mxCell>
        <mxCell id="xc-v-wYqTJA-IZ1ZFv6Z-12" value="VPC" style="points=[[0,0],[0.25,0],[0.5,0],[0.75,0],[1,0],[1,0.25],[1,0.5],[1,0.75],[1,1],[0.75,1],[0.5,1],[0.25,1],[0,1],[0,0.75],[0,0.5],[0,0.25]];outlineConnect=0;gradientColor=none;html=1;whiteSpace=wrap;fontSize=12;fontStyle=0;shape=mxgraph.aws4.group;grIcon=mxgraph.aws4.group_vpc;strokeColor=#248814;fillColor=none;verticalAlign=top;align=left;spacingLeft=30;fontColor=#AAB7B8;dashed=0;" vertex="1" parent="1">
          <mxGeometry x="177" y="-738" width="998" height="716" as="geometry"/>
        </mxCell>
        <mxCell id="xc-v-wYqTJA-IZ1ZFv6Z-18" value="Private subnet" style="points=[[0,0],[0.25,0],[0.5,0],[0.75,0],[1,0],[1,0.25],[1,0.5],[1,0.75],[1,1],[0.75,1],[0.5,1],[0.25,1],[0,1],[0,0.75],[0,0.5],[0,0.25]];outlineConnect=0;gradientColor=none;html=1;whiteSpace=wrap;fontSize=12;fontStyle=0;shape=mxgraph.aws4.group;grIcon=mxgraph.aws4.group_security_group;grStroke=0;strokeColor=#147EBA;fillColor=#E6F2F8;verticalAlign=top;align=left;spacingLeft=30;fontColor=#147EBA;dashed=0;" vertex="1" parent="1">
          <mxGeometry x="224" y="-272" width="297" height="220" as="geometry"/>
        </mxCell>
        <mxCell id="xc-v-wYqTJA-IZ1ZFv6Z-21" value="Availability Zone" style="fillColor=none;strokeColor=#147EBA;dashed=1;verticalAlign=bottom;fontStyle=0;fontColor=#147EBA;" vertex="1" parent="1">
          <mxGeometry x="683" y="-608" width="367" height="580" as="geometry"/>
        </mxCell>
        <mxCell id="xc-v-wYqTJA-IZ1ZFv6Z-20" value="Availability Zone" style="fillColor=none;strokeColor=#147EBA;dashed=1;verticalAlign=bottom;fontStyle=0;fontColor=#147EBA;horizontal=1;" vertex="1" parent="1">
          <mxGeometry x="200" y="-612" width="360" height="584" as="geometry"/>
        </mxCell>
        <mxCell id="xc-v-wYqTJA-IZ1ZFv6Z-16" value="Public subnet" style="points=[[0,0],[0.25,0],[0.5,0],[0.75,0],[1,0],[1,0.25],[1,0.5],[1,0.75],[1,1],[0.75,1],[0.5,1],[0.25,1],[0,1],[0,0.75],[0,0.5],[0,0.25]];outlineConnect=0;gradientColor=none;html=1;whiteSpace=wrap;fontSize=12;fontStyle=0;shape=mxgraph.aws4.group;grIcon=mxgraph.aws4.group_security_group;grStroke=0;strokeColor=#248814;fillColor=#E9F3E6;verticalAlign=top;align=left;spacingLeft=30;fontColor=#248814;dashed=0;" vertex="1" parent="1">
          <mxGeometry x="224" y="-576" width="297" height="260" as="geometry"/>
        </mxCell>
        <mxCell id="xc-v-wYqTJA-IZ1ZFv6Z-15" value="Public subnet" style="points=[[0,0],[0.25,0],[0.5,0],[0.75,0],[1,0],[1,0.25],[1,0.5],[1,0.75],[1,1],[0.75,1],[0.5,1],[0.25,1],[0,1],[0,0.75],[0,0.5],[0,0.25]];outlineConnect=0;gradientColor=none;html=1;whiteSpace=wrap;fontSize=12;fontStyle=0;shape=mxgraph.aws4.group;grIcon=mxgraph.aws4.group_security_group;grStroke=0;strokeColor=#248814;fillColor=#E9F3E6;verticalAlign=top;align=left;spacingLeft=30;fontColor=#248814;dashed=0;" vertex="1" parent="1">
          <mxGeometry x="704" y="-576" width="296" height="260" as="geometry"/>
        </mxCell>
        <mxCell id="xc-v-wYqTJA-IZ1ZFv6Z-42" style="edgeStyle=orthogonalEdgeStyle;rounded=0;orthogonalLoop=1;jettySize=auto;html=1;exitX=0.25;exitY=1;exitDx=0;exitDy=0;entryX=0.5;entryY=0.02;entryDx=0;entryDy=0;entryPerimeter=0;" edge="1" parent="1" target="xc-v-wYqTJA-IZ1ZFv6Z-29">
          <mxGeometry relative="1" as="geometry">
            <mxPoint x="433.272727272727" y="-337.3636363636365" as="sourcePoint"/>
          </mxGeometry>
        </mxCell>
        <mxCell id="xc-v-wYqTJA-IZ1ZFv6Z-43" style="edgeStyle=orthogonalEdgeStyle;rounded=0;orthogonalLoop=1;jettySize=auto;html=1;exitX=0.75;exitY=1;exitDx=0;exitDy=0;" edge="1" parent="1" target="xc-v-wYqTJA-IZ1ZFv6Z-29">
          <mxGeometry relative="1" as="geometry">
            <mxPoint x="798.7272727272721" y="-337.3636363636365" as="sourcePoint"/>
          </mxGeometry>
        </mxCell>
        <mxCell id="-QjtrjUzRDEMRZ5MF8oH-9" value="1" style="rounded=1;whiteSpace=wrap;html=1;fillColor=#007CBD;strokeColor=none;fontColor=#FFFFFF;fontStyle=1;fontSize=22;" parent="1" vertex="1">
          <mxGeometry x="89.5" y="-757" width="40" height="38" as="geometry"/>
        </mxCell>
        <mxCell id="-QjtrjUzRDEMRZ5MF8oH-27" value="2" style="rounded=1;whiteSpace=wrap;html=1;fillColor=#007CBD;strokeColor=none;fontColor=#FFFFFF;fontStyle=1;fontSize=22;" parent="1" vertex="1">
          <mxGeometry x="668.5" y="-715.5" width="40" height="38" as="geometry"/>
        </mxCell>
        <mxCell id="-QjtrjUzRDEMRZ5MF8oH-28" value="3" style="rounded=1;whiteSpace=wrap;html=1;fillColor=#007CBD;strokeColor=none;fontColor=#FFFFFF;fontStyle=1;fontSize=22;" parent="1" vertex="1">
          <mxGeometry x="701.5" y="-446" width="40" height="38" as="geometry"/>
        </mxCell>
        <mxCell id="-QjtrjUzRDEMRZ5MF8oH-29" value="4" style="rounded=1;whiteSpace=wrap;html=1;fillColor=#007CBD;strokeColor=none;fontColor=#FFFFFF;fontStyle=1;fontSize=22;" parent="1" vertex="1">
          <mxGeometry x="473.5" y="-242" width="40" height="38" as="geometry"/>
        </mxCell>
        <mxCell id="-QjtrjUzRDEMRZ5MF8oH-30" value="5" style="rounded=1;whiteSpace=wrap;html=1;fillColor=#007CBD;strokeColor=none;fontColor=#FFFFFF;fontStyle=1;fontSize=22;" parent="1" vertex="1">
          <mxGeometry x="960" y="-237" width="40" height="38" as="geometry"/>
        </mxCell>
        <mxCell id="-QjtrjUzRDEMRZ5MF8oH-31" value="6" style="rounded=1;whiteSpace=wrap;html=1;fillColor=#007CBD;strokeColor=none;fontColor=#FFFFFF;fontStyle=1;fontSize=22;" parent="1" vertex="1">
          <mxGeometry x="1064.5" y="-525" width="40" height="38" as="geometry"/>
        </mxCell>
        <mxCell id="-QjtrjUzRDEMRZ5MF8oH-32" value="7" style="rounded=1;whiteSpace=wrap;html=1;fillColor=#007CBD;strokeColor=none;fontColor=#FFFFFF;fontStyle=1;fontSize=22;" parent="1" vertex="1">
          <mxGeometry x="1228.5" y="-541" width="40" height="38" as="geometry"/>
        </mxCell>
        <mxCell id="-QjtrjUzRDEMRZ5MF8oH-33" value="8" style="rounded=1;whiteSpace=wrap;html=1;fillColor=#007CBD;strokeColor=none;fontColor=#FFFFFF;fontStyle=1;fontSize=22;" parent="1" vertex="1">
          <mxGeometry x="1425.5" y="-525" width="40" height="38" as="geometry"/>
        </mxCell>
        <mxCell id="-QjtrjUzRDEMRZ5MF8oH-34" value="9" style="rounded=1;whiteSpace=wrap;html=1;fillColor=#007CBD;strokeColor=none;fontColor=#FFFFFF;fontStyle=1;fontSize=22;" parent="1" vertex="1">
          <mxGeometry x="-102.5" y="-765.5" width="40" height="38" as="geometry"/>
        </mxCell>
        <mxCell id="-QjtrjUzRDEMRZ5MF8oH-35" value="10" style="rounded=1;whiteSpace=wrap;html=1;fillColor=#007CBD;strokeColor=none;fontColor=#FFFFFF;fontStyle=1;fontSize=22;" parent="1" vertex="1">
          <mxGeometry x="1104.5" y="-784.5" width="40" height="38" as="geometry"/>
        </mxCell>
        <mxCell id="-QjtrjUzRDEMRZ5MF8oH-47" value="AWS Architect Certification Project" style="text;html=1;resizable=0;points=[];autosize=1;align=left;verticalAlign=top;spacingTop=-4;fontSize=30;fontStyle=1" parent="1" vertex="1">
          <mxGeometry x="1.5" y="-964" width="520" height="40" as="geometry"/>
        </mxCell>
        <mxCell id="-QjtrjUzRDEMRZ5MF8oH-48" value="AWS Architect Diagram" style="text;html=1;resizable=0;points=[];autosize=1;align=left;verticalAlign=top;spacingTop=-4;fontSize=16;" parent="1" vertex="1">
          <mxGeometry x="-1.5" y="-879" width="180" height="20" as="geometry"/>
        </mxCell>
        <mxCell id="SCVMTBWpLvtzJIhz15lM-1" value="" style="line;strokeWidth=2;html=1;fontSize=14;" parent="1" vertex="1">
          <mxGeometry x="1" y="-859" width="169" height="10" as="geometry"/>
        </mxCell>
        <mxCell id="7OVz4w7n9kzEPWy-4BBC-3" value="" style="rounded=0;whiteSpace=wrap;html=1;fillColor=#EAEDED;fontSize=22;fontColor=#FFFFFF;strokeColor=none;labelBackgroundColor=none;" parent="1" vertex="1">
          <mxGeometry x="1560" y="-1052.5" width="539" height="1220" as="geometry"/>
        </mxCell>
        <mxCell id="7OVz4w7n9kzEPWy-4BBC-4" value="1" style="rounded=1;whiteSpace=wrap;html=1;fillColor=#007CBD;strokeColor=none;fontColor=#FFFFFF;fontStyle=1;fontSize=22;labelBackgroundColor=none;" parent="1" vertex="1">
          <mxGeometry x="1578" y="-1040.5" width="40" height="38" as="geometry"/>
        </mxCell>
        <mxCell id="7OVz4w7n9kzEPWy-4BBC-5" value="2" style="rounded=1;whiteSpace=wrap;html=1;fillColor=#007CBD;strokeColor=none;fontColor=#FFFFFF;fontStyle=1;fontSize=22;labelBackgroundColor=none;" parent="1" vertex="1">
          <mxGeometry x="1576.5" y="-918.5" width="40" height="38" as="geometry"/>
        </mxCell>
        <mxCell id="7OVz4w7n9kzEPWy-4BBC-6" value="3" style="rounded=1;whiteSpace=wrap;html=1;fillColor=#007CBD;strokeColor=none;fontColor=#FFFFFF;fontStyle=1;fontSize=22;labelBackgroundColor=none;" parent="1" vertex="1">
          <mxGeometry x="1576.5" y="-798.5" width="40" height="38" as="geometry"/>
        </mxCell>
        <mxCell id="7OVz4w7n9kzEPWy-4BBC-7" value="4" style="rounded=1;whiteSpace=wrap;html=1;fillColor=#007CBD;strokeColor=none;fontColor=#FFFFFF;fontStyle=1;fontSize=22;labelBackgroundColor=none;" parent="1" vertex="1">
          <mxGeometry x="1576.5" y="-684.5" width="40" height="38" as="geometry"/>
        </mxCell>
        <mxCell id="7OVz4w7n9kzEPWy-4BBC-8" value="5" style="rounded=1;whiteSpace=wrap;html=1;fillColor=#007CBD;strokeColor=none;fontColor=#FFFFFF;fontStyle=1;fontSize=22;labelBackgroundColor=none;" parent="1" vertex="1">
          <mxGeometry x="1578" y="-567.5" width="40" height="38" as="geometry"/>
        </mxCell>
        <mxCell id="7OVz4w7n9kzEPWy-4BBC-9" value="6" style="rounded=1;whiteSpace=wrap;html=1;fillColor=#007CBD;strokeColor=none;fontColor=#FFFFFF;fontStyle=1;fontSize=22;labelBackgroundColor=none;" parent="1" vertex="1">
          <mxGeometry x="1579" y="-452.5" width="40" height="38" as="geometry"/>
        </mxCell>
        <mxCell id="7OVz4w7n9kzEPWy-4BBC-10" value="7" style="rounded=1;whiteSpace=wrap;html=1;fillColor=#007CBD;strokeColor=none;fontColor=#FFFFFF;fontStyle=1;fontSize=22;labelBackgroundColor=none;" parent="1" vertex="1">
          <mxGeometry x="1578.5" y="-336.5" width="40" height="38" as="geometry"/>
        </mxCell>
        <mxCell id="7OVz4w7n9kzEPWy-4BBC-11" value="8" style="rounded=1;whiteSpace=wrap;html=1;fillColor=#007CBD;strokeColor=none;fontColor=#FFFFFF;fontStyle=1;fontSize=22;labelBackgroundColor=none;" parent="1" vertex="1">
          <mxGeometry x="1579" y="-218.5" width="40" height="38" as="geometry"/>
        </mxCell>
        <mxCell id="7OVz4w7n9kzEPWy-4BBC-12" value="9" style="rounded=1;whiteSpace=wrap;html=1;fillColor=#007CBD;strokeColor=none;fontColor=#FFFFFF;fontStyle=1;fontSize=22;labelBackgroundColor=none;" parent="1" vertex="1">
          <mxGeometry x="1577" y="-98.5" width="40" height="38" as="geometry"/>
        </mxCell>
        <mxCell id="7OVz4w7n9kzEPWy-4BBC-13" value="&lt;span style=&quot;font-size: 19px&quot;&gt;CloudFront&lt;br&gt;&lt;br&gt;This should cache Dynamic Website for all users around the world to reduce latency&lt;br&gt;&lt;/span&gt;" style="text;html=1;align=left;verticalAlign=top;spacingTop=-4;fontSize=14;labelBackgroundColor=none;whiteSpace=wrap;" parent="1" vertex="1">
          <mxGeometry x="1630" y="-1041" width="449" height="91" as="geometry"/>
        </mxCell>
        <mxCell id="7OVz4w7n9kzEPWy-4BBC-14" value="&lt;font style=&quot;font-size: 19px&quot;&gt;&lt;span&gt;Elastic Load Balance&lt;br&gt;&lt;/span&gt;&lt;br&gt;This is responsible to balance load received from clients. Load is distributed evenly and fairly to all EC2&lt;/font&gt;" style="text;html=1;align=left;verticalAlign=top;spacingTop=-4;fontSize=14;labelBackgroundColor=none;whiteSpace=wrap;" parent="1" vertex="1">
          <mxGeometry x="1628.5" y="-918" width="450" height="115" as="geometry"/>
        </mxCell>
        <mxCell id="7OVz4w7n9kzEPWy-4BBC-15" value="&lt;span&gt;Lorem ipsum dolor sit amet, consectetur adipiscing elit, sed do eiusmod tempor incididunt ut labore et dolore magna aliqua. Ut enim ad minim veniam, quis nostrud exercitation ullamco laboris nisi ut aliquip ex ea commodo consequat. Duis aute irure dolor in reprehenderit in voluptate velit esse cillum dolore eu fugiat nulla pariatur. Excepteur sint occaecat cupidatat non proident, sunt in culpa qui officia deserunt mollit anim id est laborum.&lt;/span&gt;&lt;br&gt;" style="text;html=1;align=left;verticalAlign=top;spacingTop=-4;fontSize=14;labelBackgroundColor=none;whiteSpace=wrap;" parent="1" vertex="1">
          <mxGeometry x="1628.5" y="-800" width="450" height="117" as="geometry"/>
        </mxCell>
        <mxCell id="7OVz4w7n9kzEPWy-4BBC-16" value="&lt;span&gt;Lorem ipsum dolor sit amet, consectetur adipiscing elit, sed do eiusmod tempor incididunt ut labore et dolore magna aliqua. Ut enim ad minim veniam, quis nostrud exercitation ullamco laboris nisi ut aliquip ex ea commodo consequat. Duis aute irure dolor in reprehenderit in voluptate velit esse cillum dolore eu fugiat nulla pariatur. Excepteur sint occaecat cupidatat non proident, sunt in culpa qui officia deserunt mollit anim id est laborum.&lt;/span&gt;&lt;br&gt;" style="text;html=1;align=left;verticalAlign=top;spacingTop=-4;fontSize=14;labelBackgroundColor=none;whiteSpace=wrap;" parent="1" vertex="1">
          <mxGeometry x="1628.5" y="-684" width="450" height="121" as="geometry"/>
        </mxCell>
        <mxCell id="7OVz4w7n9kzEPWy-4BBC-17" value="&lt;span&gt;Lorem ipsum dolor sit amet, consectetur adipiscing elit, sed do eiusmod tempor incididunt ut labore et dolore magna aliqua. Ut enim ad minim veniam, quis nostrud exercitation ullamco laboris nisi ut aliquip ex ea commodo consequat. Duis aute irure dolor in reprehenderit in voluptate velit esse cillum dolore eu fugiat nulla pariatur. Excepteur sint occaecat cupidatat non proident, sunt in culpa qui officia deserunt mollit anim id est laborum.&lt;/span&gt;&lt;br&gt;" style="text;html=1;align=left;verticalAlign=top;spacingTop=-4;fontSize=14;labelBackgroundColor=none;whiteSpace=wrap;" parent="1" vertex="1">
          <mxGeometry x="1629.5" y="-567" width="449" height="114" as="geometry"/>
        </mxCell>
        <mxCell id="7OVz4w7n9kzEPWy-4BBC-18" value="&lt;span&gt;Lorem ipsum dolor sit amet, consectetur adipiscing elit, sed do eiusmod tempor incididunt ut labore et dolore magna aliqua. Ut enim ad minim veniam, quis nostrud exercitation ullamco laboris nisi ut aliquip ex ea commodo consequat. Duis aute irure dolor in reprehenderit in voluptate velit esse cillum dolore eu fugiat nulla pariatur. Excepteur sint occaecat cupidatat non proident, sunt in culpa qui officia deserunt mollit anim id est laborum.&lt;/span&gt;&lt;br&gt;" style="text;html=1;align=left;verticalAlign=top;spacingTop=-4;fontSize=14;labelBackgroundColor=none;whiteSpace=wrap;" parent="1" vertex="1">
          <mxGeometry x="1629.5" y="-451" width="450" height="118" as="geometry"/>
        </mxCell>
        <mxCell id="7OVz4w7n9kzEPWy-4BBC-19" value="&lt;span&gt;Lorem ipsum dolor sit amet, consectetur adipiscing elit, sed do eiusmod tempor incididunt ut labore et dolore magna aliqua. Ut enim ad minim veniam, quis nostrud exercitation ullamco laboris nisi ut aliquip ex ea commodo consequat. Duis aute irure dolor in reprehenderit in voluptate velit esse cillum dolore eu fugiat nulla pariatur. Excepteur sint occaecat cupidatat non proident, sunt in culpa qui officia deserunt mollit anim id est laborum.&lt;/span&gt;&lt;br&gt;" style="text;html=1;align=left;verticalAlign=top;spacingTop=-4;fontSize=14;labelBackgroundColor=none;whiteSpace=wrap;" parent="1" vertex="1">
          <mxGeometry x="1629.5" y="-336" width="449" height="113" as="geometry"/>
        </mxCell>
        <mxCell id="7OVz4w7n9kzEPWy-4BBC-20" value="&lt;span&gt;Lorem ipsum dolor sit amet, consectetur adipiscing elit, sed do eiusmod tempor incididunt ut labore et dolore magna aliqua. Ut enim ad minim veniam, quis nostrud exercitation ullamco laboris nisi ut aliquip ex ea commodo consequat. Duis aute irure dolor in reprehenderit in voluptate velit esse cillum dolore eu fugiat nulla pariatur. Excepteur sint occaecat cupidatat non proident, sunt in culpa qui officia deserunt mollit anim id est laborum.&lt;/span&gt;&lt;br&gt;" style="text;html=1;align=left;verticalAlign=top;spacingTop=-4;fontSize=14;labelBackgroundColor=none;whiteSpace=wrap;" parent="1" vertex="1">
          <mxGeometry x="1629.5" y="-217" width="449" height="124" as="geometry"/>
        </mxCell>
        <mxCell id="7OVz4w7n9kzEPWy-4BBC-21" value="&lt;span&gt;Lorem ipsum dolor sit amet, consectetur adipiscing elit, sed do eiusmod tempor incididunt ut labore et dolore magna aliqua. Ut enim ad minim veniam, quis nostrud exercitation ullamco laboris nisi ut aliquip ex ea commodo consequat. Duis aute irure dolor in reprehenderit in voluptate velit esse cillum dolore eu fugiat nulla pariatur. Excepteur sint occaecat cupidatat non proident, sunt in culpa qui officia deserunt mollit anim id est laborum.&lt;/span&gt;&lt;br&gt;" style="text;html=1;align=left;verticalAlign=top;spacingTop=-4;fontSize=14;labelBackgroundColor=none;whiteSpace=wrap;" parent="1" vertex="1">
          <mxGeometry x="1629.5" y="-98" width="449" height="115" as="geometry"/>
        </mxCell>
        <mxCell id="7OVz4w7n9kzEPWy-4BBC-22" value="10" style="rounded=1;whiteSpace=wrap;html=1;fillColor=#007CBD;strokeColor=none;fontColor=#FFFFFF;fontStyle=1;fontSize=22;labelBackgroundColor=none;" parent="1" vertex="1">
          <mxGeometry x="1578" y="27" width="40" height="38" as="geometry"/>
        </mxCell>
        <mxCell id="7OVz4w7n9kzEPWy-4BBC-23" value="&lt;span&gt;Lorem ipsum dolor sit amet, consectetur adipiscing elit, sed do eiusmod tempor incididunt ut labore et dolore magna aliqua. Ut enim ad minim veniam, quis nostrud exercitation ullamco laboris nisi ut aliquip ex ea commodo consequat. Duis aute irure dolor in reprehenderit in voluptate velit esse cillum dolore eu fugiat nulla pariatur. Excepteur sint occaecat cupidatat non proident, sunt in culpa qui officia deserunt mollit anim id est laborum.&lt;/span&gt;&lt;br&gt;" style="text;html=1;align=left;verticalAlign=top;spacingTop=-4;fontSize=14;labelBackgroundColor=none;whiteSpace=wrap;" parent="1" vertex="1">
          <mxGeometry x="1630.5" y="27.5" width="449" height="115" as="geometry"/>
        </mxCell>
        <mxCell id="xc-v-wYqTJA-IZ1ZFv6Z-66" style="edgeStyle=orthogonalEdgeStyle;rounded=0;orthogonalLoop=1;jettySize=auto;html=1;" edge="1" parent="1" source="xc-v-wYqTJA-IZ1ZFv6Z-5" target="xc-v-wYqTJA-IZ1ZFv6Z-7">
          <mxGeometry relative="1" as="geometry"/>
        </mxCell>
        <mxCell id="xc-v-wYqTJA-IZ1ZFv6Z-5" value="&lt;b&gt;CloudFront&lt;/b&gt;" style="outlineConnect=0;dashed=0;verticalLabelPosition=bottom;verticalAlign=top;align=center;html=1;shape=mxgraph.aws3.cloudfront;fillColor=#F58536;gradientColor=none;strokeColor=#990000;" vertex="1" parent="1">
          <mxGeometry x="69.5" y="-707" width="56" height="59" as="geometry"/>
        </mxCell>
        <mxCell id="xc-v-wYqTJA-IZ1ZFv6Z-22" style="edgeStyle=orthogonalEdgeStyle;rounded=0;orthogonalLoop=1;jettySize=auto;html=1;" edge="1" parent="1" source="xc-v-wYqTJA-IZ1ZFv6Z-6" target="xc-v-wYqTJA-IZ1ZFv6Z-5">
          <mxGeometry relative="1" as="geometry">
            <mxPoint x="435" y="-787" as="targetPoint"/>
          </mxGeometry>
        </mxCell>
        <mxCell id="xc-v-wYqTJA-IZ1ZFv6Z-6" value="&lt;b&gt;Users&lt;/b&gt;" style="aspect=fixed;perimeter=ellipsePerimeter;html=1;align=center;shadow=0;dashed=0;spacingTop=3;image;image=img/lib/active_directory/users.svg;strokeColor=#990000;fillColor=#990000;gradientColor=none;" vertex="1" parent="1">
          <mxGeometry x="-127.5" y="-727.5" width="65" height="100" as="geometry"/>
        </mxCell>
        <mxCell id="xc-v-wYqTJA-IZ1ZFv6Z-7" value="&lt;b&gt;Elastic Load Balance&lt;/b&gt;" style="outlineConnect=0;dashed=0;verticalLabelPosition=bottom;verticalAlign=top;align=center;html=1;shape=mxgraph.aws3.elastic_load_balancing;fillColor=#F58536;gradientColor=none;strokeColor=#990000;" vertex="1" parent="1">
          <mxGeometry x="588.5" y="-708" width="60" height="60" as="geometry"/>
        </mxCell>
        <mxCell id="xc-v-wYqTJA-IZ1ZFv6Z-8" value="" style="shape=mxgraph.arrows.slender_two_way_arrow;html=1;verticalLabelPosition=bottom;verticalAlign=top;strokeWidth=2;strokeColor=#F58536;fillColor=#F58536;gradientColor=none;" vertex="1" parent="1">
          <mxGeometry x="571.5" y="-552" width="97" height="30" as="geometry"/>
        </mxCell>
        <mxCell id="xc-v-wYqTJA-IZ1ZFv6Z-9" value="" style="endArrow=classic;html=1;exitX=0.5;exitY=1;exitDx=0;exitDy=0;exitPerimeter=0;entryX=0.495;entryY=0.217;entryDx=0;entryDy=0;entryPerimeter=0;" edge="1" parent="1" source="xc-v-wYqTJA-IZ1ZFv6Z-7" target="xc-v-wYqTJA-IZ1ZFv6Z-8">
          <mxGeometry width="50" height="50" relative="1" as="geometry">
            <mxPoint x="724" y="-632" as="sourcePoint"/>
            <mxPoint x="597.5" y="-585.5" as="targetPoint"/>
          </mxGeometry>
        </mxCell>
        <mxCell id="xc-v-wYqTJA-IZ1ZFv6Z-34" style="edgeStyle=orthogonalEdgeStyle;rounded=0;orthogonalLoop=1;jettySize=auto;html=1;exitX=1;exitY=0.5;exitDx=0;exitDy=0;exitPerimeter=0;" edge="1" parent="1" source="xc-v-wYqTJA-IZ1ZFv6Z-29" target="xc-v-wYqTJA-IZ1ZFv6Z-28">
          <mxGeometry relative="1" as="geometry"/>
        </mxCell>
        <mxCell id="xc-v-wYqTJA-IZ1ZFv6Z-23" value="Text" style="text;html=1;align=center;verticalAlign=middle;resizable=0;points=[];;autosize=1;" vertex="1" parent="1">
          <mxGeometry x="-169" y="-841" width="40" height="20" as="geometry"/>
        </mxCell>
        <mxCell id="xc-v-wYqTJA-IZ1ZFv6Z-26" value="EC2" style="outlineConnect=0;dashed=0;verticalLabelPosition=bottom;verticalAlign=top;align=center;html=1;shape=mxgraph.aws3.ec2;fillColor=#F58534;gradientColor=none;labelBackgroundColor=#ffffff;strokeColor=#000000;" vertex="1" parent="1">
          <mxGeometry x="309" y="-492.5" width="76.5" height="93" as="geometry"/>
        </mxCell>
        <mxCell id="xc-v-wYqTJA-IZ1ZFv6Z-27" value="EC2" style="outlineConnect=0;dashed=0;verticalLabelPosition=bottom;verticalAlign=top;align=center;html=1;shape=mxgraph.aws3.ec2;fillColor=#F58534;gradientColor=none;labelBackgroundColor=#ffffff;strokeColor=#000000;" vertex="1" parent="1">
          <mxGeometry x="828.5" y="-492.5" width="76.5" height="93" as="geometry"/>
        </mxCell>
        <mxCell id="xc-v-wYqTJA-IZ1ZFv6Z-46" style="edgeStyle=orthogonalEdgeStyle;rounded=0;orthogonalLoop=1;jettySize=auto;html=1;exitX=0;exitY=0.5;exitDx=0;exitDy=0;exitPerimeter=0;" edge="1" parent="1" source="xc-v-wYqTJA-IZ1ZFv6Z-28" target="xc-v-wYqTJA-IZ1ZFv6Z-29">
          <mxGeometry relative="1" as="geometry"/>
        </mxCell>
        <mxCell id="xc-v-wYqTJA-IZ1ZFv6Z-28" value="" style="outlineConnect=0;dashed=0;verticalLabelPosition=bottom;verticalAlign=top;align=center;html=1;shape=mxgraph.aws3.rds_db_instance_standby_multi_az;fillColor=#2E73B8;gradientColor=none;labelBackgroundColor=#ffffff;strokeColor=#000000;" vertex="1" parent="1">
          <mxGeometry x="828" y="-214" width="92" height="121" as="geometry"/>
        </mxCell>
        <mxCell id="xc-v-wYqTJA-IZ1ZFv6Z-44" style="edgeStyle=orthogonalEdgeStyle;rounded=0;orthogonalLoop=1;jettySize=auto;html=1;exitX=0.5;exitY=0.02;exitDx=0;exitDy=0;exitPerimeter=0;entryX=0.25;entryY=1;entryDx=0;entryDy=0;" edge="1" parent="1" source="xc-v-wYqTJA-IZ1ZFv6Z-29">
          <mxGeometry relative="1" as="geometry">
            <mxPoint x="433.272727272727" y="-337.3636363636365" as="targetPoint"/>
          </mxGeometry>
        </mxCell>
        <mxCell id="xc-v-wYqTJA-IZ1ZFv6Z-45" style="edgeStyle=orthogonalEdgeStyle;rounded=0;orthogonalLoop=1;jettySize=auto;html=1;exitX=0.5;exitY=0.02;exitDx=0;exitDy=0;exitPerimeter=0;entryX=0.75;entryY=1;entryDx=0;entryDy=0;" edge="1" parent="1" source="xc-v-wYqTJA-IZ1ZFv6Z-29">
          <mxGeometry relative="1" as="geometry">
            <mxPoint x="798.7272727272721" y="-337.3636363636365" as="targetPoint"/>
          </mxGeometry>
        </mxCell>
        <mxCell id="xc-v-wYqTJA-IZ1ZFv6Z-29" value="" style="outlineConnect=0;dashed=0;verticalLabelPosition=bottom;verticalAlign=top;align=center;html=1;shape=mxgraph.aws3.rds_db_instance;fillColor=#2E73B8;gradientColor=none;labelBackgroundColor=#ffffff;strokeColor=#000000;" vertex="1" parent="1">
          <mxGeometry x="309" y="-218" width="91" height="120" as="geometry"/>
        </mxCell>
        <mxCell id="xc-v-wYqTJA-IZ1ZFv6Z-35" value="Amazon RDS Active(main)&amp;nbsp; Multi-AZ" style="text;html=1;" vertex="1" parent="1">
          <mxGeometry x="300.5" y="-93" width="150" height="30" as="geometry"/>
        </mxCell>
        <mxCell id="xc-v-wYqTJA-IZ1ZFv6Z-36" value="Amazon RDS Standby Multi-AZ" style="text;html=1;" vertex="1" parent="1">
          <mxGeometry x="802.5" y="-93" width="150" height="30" as="geometry"/>
        </mxCell>
        <mxCell id="xc-v-wYqTJA-IZ1ZFv6Z-47" value="CloudWATCH" style="outlineConnect=0;dashed=0;verticalLabelPosition=bottom;verticalAlign=top;align=center;html=1;shape=mxgraph.aws3.cloudwatch;fillColor=#759C3E;gradientColor=none;labelBackgroundColor=#ffffff;strokeColor=#000000;" vertex="1" parent="1">
          <mxGeometry x="1215" y="-475" width="107" height="93" as="geometry"/>
        </mxCell>
        <mxCell id="xc-v-wYqTJA-IZ1ZFv6Z-50" value="" style="edgeStyle=orthogonalEdgeStyle;rounded=0;orthogonalLoop=1;jettySize=auto;html=1;" edge="1" parent="1" source="xc-v-wYqTJA-IZ1ZFv6Z-47" target="xc-v-wYqTJA-IZ1ZFv6Z-49">
          <mxGeometry relative="1" as="geometry">
            <mxPoint x="1303.5" y="-576.2727272727275" as="sourcePoint"/>
          </mxGeometry>
        </mxCell>
        <mxCell id="xc-v-wYqTJA-IZ1ZFv6Z-49" value="EMAIL" style="outlineConnect=0;dashed=0;verticalLabelPosition=bottom;verticalAlign=top;align=center;html=1;shape=mxgraph.aws3.email_notification;fillColor=#D9A741;gradientColor=none;labelBackgroundColor=#ffffff;strokeColor=#000000;" vertex="1" parent="1">
          <mxGeometry x="1365" y="-459.5" width="100.5" height="63" as="geometry"/>
        </mxCell>
        <mxCell id="xc-v-wYqTJA-IZ1ZFv6Z-63" style="edgeStyle=orthogonalEdgeStyle;rounded=0;orthogonalLoop=1;jettySize=auto;html=1;" edge="1" parent="1" source="xc-v-wYqTJA-IZ1ZFv6Z-60">
          <mxGeometry relative="1" as="geometry">
            <mxPoint x="980.5" y="-428" as="targetPoint"/>
          </mxGeometry>
        </mxCell>
        <mxCell id="xc-v-wYqTJA-IZ1ZFv6Z-60" value="VPC PRIVATELINK" style="outlineConnect=0;fontColor=#232F3E;gradientColor=#945DF2;gradientDirection=north;fillColor=#5A30B5;strokeColor=#ffffff;dashed=0;verticalLabelPosition=bottom;verticalAlign=top;align=center;html=1;fontSize=12;fontStyle=0;aspect=fixed;shape=mxgraph.aws4.resourceIcon;resIcon=mxgraph.aws4.vpc_privatelink;labelBackgroundColor=#ffffff;" vertex="1" parent="1">
          <mxGeometry x="1065" y="-468" width="80" height="80" as="geometry"/>
        </mxCell>
        <mxCell id="xc-v-wYqTJA-IZ1ZFv6Z-62" style="edgeStyle=orthogonalEdgeStyle;rounded=0;orthogonalLoop=1;jettySize=auto;html=1;" edge="1" parent="1" source="xc-v-wYqTJA-IZ1ZFv6Z-60" target="xc-v-wYqTJA-IZ1ZFv6Z-47">
          <mxGeometry relative="1" as="geometry">
            <mxPoint x="1085" y="-452.63636363636397" as="sourcePoint"/>
            <mxPoint x="1239.181818181818" y="-512" as="targetPoint"/>
          </mxGeometry>
        </mxCell>
        <mxCell id="xc-v-wYqTJA-IZ1ZFv6Z-64" style="edgeStyle=orthogonalEdgeStyle;rounded=0;orthogonalLoop=1;jettySize=auto;html=1;exitX=0.5;exitY=1;exitDx=0;exitDy=0;exitPerimeter=0;" edge="1" parent="1" source="xc-v-wYqTJA-IZ1ZFv6Z-7" target="xc-v-wYqTJA-IZ1ZFv6Z-7">
          <mxGeometry relative="1" as="geometry"/>
        </mxCell>
        <mxCell id="xc-v-wYqTJA-IZ1ZFv6Z-71" value="Auto Scaling group" style="points=[[0,0],[0.25,0],[0.5,0],[0.75,0],[1,0],[1,0.25],[1,0.5],[1,0.75],[1,1],[0.75,1],[0.5,1],[0.25,1],[0,1],[0,0.75],[0,0.5],[0,0.25]];outlineConnect=0;gradientColor=none;html=1;whiteSpace=wrap;fontSize=12;fontStyle=0;shape=mxgraph.aws4.groupCenter;grIcon=mxgraph.aws4.group_auto_scaling_group;grStroke=1;strokeColor=#D86613;fillColor=none;verticalAlign=top;align=center;fontColor=#D86613;dashed=1;spacingTop=25;labelBackgroundColor=#ffffff;" vertex="1" parent="1">
          <mxGeometry x="250" y="-503" width="730" height="130" as="geometry"/>
        </mxCell>
      </root>
    </mxGraphModel>
  </diagram>
</mxfile>
